<svg xmlns="http://www.w3.org/2000/svg" xmlns:xlink="http://www.w3.org/1999/xlink" xmlns:lucid="lucid" width="898.19" height="298.33"><g transform="translate(0 0)" lucid:page-tab-id="HWEp-vi-RSFO"><path d="M50 120h160v160H50z" stroke="#333" stroke-width="2" fill="#fff"/><use xlink:href="#a" transform="matrix(1,0,0,1,55,125) translate(41.05 78.60000000000001)"/><use xlink:href="#b" transform="matrix(1,0,0,1,55,125) translate(91 78.60000000000001)"/><path d="M211.5 200h41.12" stroke="#333" fill="none"/><path d="M211.5 200.5h-.5v-1h.5" fill="#333"/><path d="M267.38 200l-14.26 4.64v-9.28z" stroke="#333" fill="#333"/><path d="M270 120h160v160H270z" stroke="#333" stroke-width="2" fill="#fff"/><use xlink:href="#c" transform="matrix(1,0,0,1,275,125) translate(43.55 78.60000000000001)"/><path d="M431.5 200h61.12" stroke="#333" fill="none"/><path d="M431.5 200.5h-.5v-1h.5" fill="#333"/><path d="M507.38 200l-14.26 4.64v-9.28z" stroke="#333" fill="#333"/><path d="M510 120h160v160H510z" stroke="#333" stroke-width="2" fill="#fff"/><use xlink:href="#a" transform="matrix(1,0,0,1,515,125) translate(41.05 78.60000000000001)"/><use xlink:href="#b" transform="matrix(1,0,0,1,515,125) translate(91 78.60000000000001)"/><path d="M671.5 200h41.12" stroke="#333" fill="none"/><path d="M671.5 200.5h-.5v-1h.5" fill="#333"/><path d="M727.38 200l-14.26 4.64v-9.28z" stroke="#333" fill="#333"/><path d="M730 120h160v160H730z" stroke="#333" stroke-width="2" fill="#fff"/><use xlink:href="#c" transform="matrix(1,0,0,1,735,125) translate(43.55 78.60000000000001)"/><path d="M130 60.5v42.12" stroke="#333" fill="none"/><path d="M130.5 60.5h-1V60h1" fill="#333"/><path d="M130 117.38l-4.64-14.26h9.28z" stroke="#333" fill="#333"/><path d="M130 60.5v43.12" stroke="#333" fill="none"/><path d="M130.5 60.5h-1V60h1" fill="#333"/><path d="M130 118.38l-4.64-14.26h9.28z" stroke="#333" fill="#333"/><path d="M30 20h200v40H30z" fill="#fff"/><g><use xlink:href="#d" transform="matrix(1,0,0,1,30,20) translate(11.880000000000004 19.41)"/></g><defs><path fill="#333" d="M30 0v-248h187v28H63v79h144v27H63v87h162V0H30" id="e"/><path fill="#333" d="M117-194c89-4 53 116 60 194h-32v-121c0-31-8-49-39-48C34-167 62-67 57 0H25l-1-190h30c1 10-1 24 2 32 11-22 29-35 61-36" id="f"/><path fill="#333" d="M59-47c-2 24 18 29 38 22v24C64 9 27 4 27-40v-127H5v-23h24l9-43h21v43h35v23H59v120" id="g"/><path fill="#333" d="M24-231v-30h32v30H24zM24 0v-190h32V0H24" id="h"/><path fill="#333" d="M179-190L93 31C79 59 56 82 12 73V49c39 6 53-20 64-50L1-190h34L92-34l54-156h33" id="i"/><g id="a"><use transform="matrix(0.05,0,0,0.05,0,0)" xlink:href="#e"/><use transform="matrix(0.05,0,0,0.05,12,0)" xlink:href="#f"/><use transform="matrix(0.05,0,0,0.05,22,0)" xlink:href="#g"/><use transform="matrix(0.05,0,0,0.05,27,0)" xlink:href="#h"/><use transform="matrix(0.05,0,0,0.05,30.950000000000003,0)" xlink:href="#g"/><use transform="matrix(0.05,0,0,0.05,35.95,0)" xlink:href="#i"/></g><path fill="#333" d="M33 0v-248h34V0H33" id="j"/><path fill="#333" d="M30-248c118-7 216 8 213 122C240-48 200 0 122 0H30v-248zM63-27c89 8 146-16 146-99s-60-101-146-95v194" id="k"/><g id="b"><use transform="matrix(0.05,0,0,0.05,0,0)" xlink:href="#j"/><use transform="matrix(0.05,0,0,0.05,5,0)" xlink:href="#k"/></g><g id="c"><use transform="matrix(0.05,0,0,0.05,0,0)" xlink:href="#e"/><use transform="matrix(0.05,0,0,0.05,12,0)" xlink:href="#f"/><use transform="matrix(0.05,0,0,0.05,22,0)" xlink:href="#g"/><use transform="matrix(0.05,0,0,0.05,27,0)" xlink:href="#h"/><use transform="matrix(0.05,0,0,0.05,30.950000000000003,0)" xlink:href="#g"/><use transform="matrix(0.05,0,0,0.05,35.95,0)" xlink:href="#i"/><use transform="matrix(0.05,0,0,0.05,44.95,0)" xlink:href="#j"/><use transform="matrix(0.05,0,0,0.05,49.95,0)" xlink:href="#k"/></g><path fill="#333" d="M210-169c-67 3-38 105-44 169h-31v-121c0-29-5-50-35-48C34-165 62-65 56 0H25l-1-190h30c1 10-1 24 2 32 10-44 99-50 107 0 11-21 27-35 58-36 85-2 47 119 55 194h-31v-121c0-29-5-49-35-48" id="l"/><path fill="#333" d="M63-220v92h138v28H63V0H30v-248h175v28H63" id="m"/><path fill="#333" d="M114-163C36-179 61-72 57 0H25l-1-190h30c1 12-1 29 2 39 6-27 23-49 58-41v29" id="n"/><path fill="#333" d="M135-143c-3-34-86-38-87 0 15 53 115 12 119 90S17 21 10-45l28-5c4 36 97 45 98 0-10-56-113-15-118-90-4-57 82-63 122-42 12 7 21 19 24 35" id="o"/><path fill="#333" d="M205 0l-28-72H64L36 0H1l101-248h38L239 0h-34zm-38-99l-47-123c-12 45-31 82-46 123h93" id="p"/><path fill="#333" d="M108 0H70L1-190h34L89-25l56-165h34" id="q"/><path fill="#333" d="M141-36C126-15 110 5 73 4 37 3 15-17 15-53c-1-64 63-63 125-63 3-35-9-54-41-54-24 1-41 7-42 31l-33-3c5-37 33-52 76-52 45 0 72 20 72 64v82c-1 20 7 32 28 27v20c-31 9-61-2-59-35zM48-53c0 20 12 33 32 33 41-3 63-29 60-74-43 2-92-5-92 41" id="r"/><path fill="#333" d="M24 0v-261h32V0H24" id="s"/><path fill="#333" d="M115-194c53 0 69 39 70 98 0 66-23 100-70 100C84 3 66-7 56-30L54 0H23l1-261h32v101c10-23 28-34 59-34zm-8 174c40 0 45-34 45-75 0-40-5-75-45-74-42 0-51 32-51 76 0 43 10 73 51 73" id="t"/><path fill="#333" d="M100-194c63 0 86 42 84 106H49c0 40 14 67 53 68 26 1 43-12 49-29l28 8c-11 28-37 45-77 45C44 4 14-33 15-96c1-61 26-98 85-98zm52 81c6-60-76-77-97-28-3 7-6 17-6 28h103" id="u"/><g id="d"><use transform="matrix(0.05,0,0,0.05,0,0)" xlink:href="#l"/><use transform="matrix(0.05,0,0,0.05,14.950000000000001,0)" xlink:href="#i"/><use transform="matrix(0.05,0,0,0.05,23.950000000000003,0)" xlink:href="#m"/><use transform="matrix(0.05,0,0,0.05,34.900000000000006,0)" xlink:href="#h"/><use transform="matrix(0.05,0,0,0.05,38.85000000000001,0)" xlink:href="#n"/><use transform="matrix(0.05,0,0,0.05,44.80000000000001,0)" xlink:href="#o"/><use transform="matrix(0.05,0,0,0.05,53.80000000000001,0)" xlink:href="#g"/><use transform="matrix(0.05,0,0,0.05,58.80000000000001,0)" xlink:href="#p"/><use transform="matrix(0.05,0,0,0.05,70.45000000000002,0)" xlink:href="#q"/><use transform="matrix(0.05,0,0,0.05,79.45000000000002,0)" xlink:href="#r"/><use transform="matrix(0.05,0,0,0.05,89.45000000000002,0)" xlink:href="#h"/><use transform="matrix(0.05,0,0,0.05,93.40000000000002,0)" xlink:href="#s"/><use transform="matrix(0.05,0,0,0.05,97.35000000000002,0)" xlink:href="#r"/><use transform="matrix(0.05,0,0,0.05,107.35000000000002,0)" xlink:href="#t"/><use transform="matrix(0.05,0,0,0.05,117.35000000000002,0)" xlink:href="#s"/><use transform="matrix(0.05,0,0,0.05,121.30000000000003,0)" xlink:href="#u"/><use transform="matrix(0.05,0,0,0.05,131.3,0)" xlink:href="#e"/><use transform="matrix(0.05,0,0,0.05,143.3,0)" xlink:href="#f"/><use transform="matrix(0.05,0,0,0.05,153.3,0)" xlink:href="#g"/><use transform="matrix(0.05,0,0,0.05,158.3,0)" xlink:href="#h"/><use transform="matrix(0.05,0,0,0.05,162.25,0)" xlink:href="#g"/><use transform="matrix(0.05,0,0,0.05,167.25,0)" xlink:href="#i"/></g></defs></g></svg>