<svg xmlns="http://www.w3.org/2000/svg" xmlns:xlink="http://www.w3.org/1999/xlink" xmlns:lucid="lucid" width="1320" height="660"><g transform="translate(-100 -120)" lucid:page-tab-id="HWEp-vi-RSFO"><path d="M120 140h160v160H120z" stroke="#333" stroke-width="2" fill="#fff"/><use xlink:href="#a" transform="matrix(1,0,0,1,125,145) translate(59.5 78.60000000000001)"/><path d="M280 140h160v160H280z" stroke="#333" stroke-width="2" fill="#fff"/><use xlink:href="#b" transform="matrix(1,0,0,1,285,145) translate(52.7 78.60000000000001)"/><path d="M440 140h160v160H440z" stroke="#333" stroke-width="2" fill="#fff"/><use xlink:href="#a" transform="matrix(1,0,0,1,445,145) translate(59.5 78.60000000000001)"/><path d="M600 140h160v160H600z" stroke="#333" stroke-width="2" fill="#fff"/><use xlink:href="#b" transform="matrix(1,0,0,1,605,145) translate(52.7 78.60000000000001)"/><path d="M760 140h160v160H760z" stroke="#333" stroke-width="2" fill="#fff"/><use xlink:href="#a" transform="matrix(1,0,0,1,765,145) translate(59.5 78.60000000000001)"/><path d="M920 140h160v160H920z" stroke="#333" stroke-width="2" fill="#fff"/><use xlink:href="#b" transform="matrix(1,0,0,1,925,145) translate(52.7 78.60000000000001)"/><path d="M1080 140h160v160h-160z" stroke="#333" stroke-width="2" fill="#fff"/><use xlink:href="#a" transform="matrix(1,0,0,1,1085,145) translate(59.5 78.60000000000001)"/><path d="M1240 140h160v160h-160z" stroke="#333" stroke-width="2" fill="#fff"/><use xlink:href="#b" transform="matrix(1,0,0,1,1245,145) translate(52.7 78.60000000000001)"/><path d="M120 420h160v160H120z" stroke="#333" stroke-width="2" fill="#fff"/><use xlink:href="#a" transform="matrix(1,0,0,1,125,425) translate(59.5 78.60000000000001)"/><path d="M280 420h160v160H280z" stroke="#333" stroke-width="2" fill="#fff"/><use xlink:href="#a" transform="matrix(1,0,0,1,285,425) translate(59.5 78.60000000000001)"/><path d="M440 420h160v160H440z" stroke="#333" stroke-width="2" fill="#fff"/><use xlink:href="#a" transform="matrix(1,0,0,1,445,425) translate(59.5 78.60000000000001)"/><path d="M600 420h160v160H600z" stroke="#333" stroke-width="2" fill="#fff"/><use xlink:href="#a" transform="matrix(1,0,0,1,605,425) translate(59.5 78.60000000000001)"/><path d="M760 420h160v160H760z" stroke="#333" stroke-width="2" fill="#fff"/><use xlink:href="#a" transform="matrix(1,0,0,1,765,425) translate(59.5 78.60000000000001)"/><path d="M920 420h160v160H920z" stroke="#333" stroke-width="2" fill="#fff"/><use xlink:href="#a" transform="matrix(1,0,0,1,925,425) translate(59.5 78.60000000000001)"/><path d="M1080 420h160v160h-160z" stroke="#333" stroke-width="2" fill="#fff"/><use xlink:href="#a" transform="matrix(1,0,0,1,1085,425) translate(59.5 78.60000000000001)"/><path d="M1240 420h160v160h-160z" stroke="#333" stroke-width="2" fill="#fff"/><use xlink:href="#a" transform="matrix(1,0,0,1,1245,425) translate(59.5 78.60000000000001)"/><path d="M120 600h160v160H120z" stroke="#333" stroke-width="2" fill="#fff"/><use xlink:href="#b" transform="matrix(1,0,0,1,125,605) translate(52.7 78.60000000000001)"/><path d="M280 600h160v160H280z" stroke="#333" stroke-width="2" fill="#fff"/><use xlink:href="#b" transform="matrix(1,0,0,1,285,605) translate(52.7 78.60000000000001)"/><path d="M440 600h160v160H440z" stroke="#333" stroke-width="2" fill="#fff"/><use xlink:href="#b" transform="matrix(1,0,0,1,445,605) translate(52.7 78.60000000000001)"/><path d="M600 600h160v160H600z" stroke="#333" stroke-width="2" fill="#fff"/><use xlink:href="#b" transform="matrix(1,0,0,1,605,605) translate(52.7 78.60000000000001)"/><path d="M760 600h160v160H760z" stroke="#333" stroke-width="2" fill="#fff"/><use xlink:href="#b" transform="matrix(1,0,0,1,765,605) translate(52.7 78.60000000000001)"/><path d="M920 600h160v160H920z" stroke="#333" stroke-width="2" fill="#fff"/><use xlink:href="#b" transform="matrix(1,0,0,1,925,605) translate(52.7 78.60000000000001)"/><path d="M1080 600h160v160h-160z" stroke="#333" stroke-width="2" fill="#fff"/><use xlink:href="#b" transform="matrix(1,0,0,1,1085,605) translate(52.7 78.60000000000001)"/><path d="M1240 600h160v160h-160z" stroke="#333" stroke-width="2" fill="#fff"/><use xlink:href="#b" transform="matrix(1,0,0,1,1245,605) translate(52.7 78.60000000000001)"/><defs><path fill="#333" d="M194 0L95-120 63-95V0H30v-248h33v124l119-124h40L117-140 236 0h-42" id="c"/><path fill="#333" d="M100-194c63 0 86 42 84 106H49c0 40 14 67 53 68 26 1 43-12 49-29l28 8c-11 28-37 45-77 45C44 4 14-33 15-96c1-61 26-98 85-98zm52 81c6-60-76-77-97-28-3 7-6 17-6 28h103" id="d"/><path fill="#333" d="M179-190L93 31C79 59 56 82 12 73V49c39 6 53-20 64-50L1-190h34L92-34l54-156h33" id="e"/><g id="a"><use transform="matrix(0.05,0,0,0.05,0,0)" xlink:href="#c"/><use transform="matrix(0.05,0,0,0.05,12,0)" xlink:href="#d"/><use transform="matrix(0.05,0,0,0.05,22,0)" xlink:href="#e"/></g><path fill="#333" d="M137 0h-34L2-248h35l83 218 83-218h36" id="f"/><path fill="#333" d="M141-36C126-15 110 5 73 4 37 3 15-17 15-53c-1-64 63-63 125-63 3-35-9-54-41-54-24 1-41 7-42 31l-33-3c5-37 33-52 76-52 45 0 72 20 72 64v82c-1 20 7 32 28 27v20c-31 9-61-2-59-35zM48-53c0 20 12 33 32 33 41-3 63-29 60-74-43 2-92-5-92 41" id="g"/><path fill="#333" d="M24 0v-261h32V0H24" id="h"/><path fill="#333" d="M84 4C-5 8 30-112 23-190h32v120c0 31 7 50 39 49 72-2 45-101 50-169h31l1 190h-30c-1-10 1-25-2-33-11 22-28 36-60 37" id="i"/><g id="b"><use transform="matrix(0.05,0,0,0.05,0,0)" xlink:href="#f"/><use transform="matrix(0.05,0,0,0.05,10.65,0)" xlink:href="#g"/><use transform="matrix(0.05,0,0,0.05,20.65,0)" xlink:href="#h"/><use transform="matrix(0.05,0,0,0.05,24.599999999999998,0)" xlink:href="#i"/><use transform="matrix(0.05,0,0,0.05,34.599999999999994,0)" xlink:href="#d"/></g></defs></g></svg>