<svg xmlns="http://www.w3.org/2000/svg" xmlns:xlink="http://www.w3.org/1999/xlink" xmlns:lucid="lucid" width="679.52" height="381"><g transform="translate(0 0)" lucid:page-tab-id="HWEp-vi-RSFO"><path d="M250 0h160v121H250z" stroke="#333" stroke-width="2" fill="#fff"/><use xlink:href="#a" transform="matrix(1,0,0,1,258,8) translate(21.549999999999997 56.1)"/><path d="M0 258.93h160v121H0z" stroke="#333" stroke-width="2" fill="#fff"/><use xlink:href="#b" transform="matrix(1,0,0,1,8,266.92666666678315) translate(25.549999999999997 56.1)"/><path d="M250 258.93h160v121H250z" stroke="#333" stroke-width="2" fill="#fff"/><use xlink:href="#b" transform="matrix(1,0,0,1,258,266.92666666678315) translate(25.549999999999997 56.1)"/><path d="M519.52 260h160v121h-160z" stroke="#333" stroke-width="2" fill="#fff"/><use xlink:href="#b" transform="matrix(1,0,0,1,527.5213070194004,268) translate(25.549999999999997 56.1)"/><path d="M330 122.5v105.05" stroke="#333" fill="none"/><path d="M330.5 122.5h-1v-.5h1" fill="#333"/><path d="M330 257.22l-14.85-14.85L330 227.22l14.85 15.15z" stroke="#333" fill="#333"/><path d="M330 122.5v56c0 6.63 5.37 12 12 12h245.52c6.63 0 12 5.37 12 12v26.13" stroke="#333" fill="none"/><path d="M330.5 122.5h-1v-.5h1" fill="#333"/><path d="M599.52 258.3l-14.85-14.86 14.85-15.15 14.85 15.14z" stroke="#333" fill="#333"/><path d="M330 122.5v55.46c0 6.63-5.37 12-12 12H92c-6.63 0-12 5.38-12 12v25.6" stroke="#333" fill="none"/><path d="M330.5 122.5h-1v-.5h1" fill="#333"/><path d="M80 257.22l-14.85-14.85L80 227.22l14.85 15.15z" stroke="#333" fill="#333"/><defs><path fill="#333" d="M143 4C61 4 22-44 18-125c-5-107 100-154 193-111 17 8 29 25 37 43l-32 9c-13-25-37-40-76-40-61 0-88 39-88 99 0 61 29 100 91 101 35 0 62-11 79-27v-45h-74v-28h105v86C228-13 192 4 143 4" id="c"/><path fill="#333" d="M141-36C126-15 110 5 73 4 37 3 15-17 15-53c-1-64 63-63 125-63 3-35-9-54-41-54-24 1-41 7-42 31l-33-3c5-37 33-52 76-52 45 0 72 20 72 64v82c-1 20 7 32 28 27v20c-31 9-61-2-59-35zM48-53c0 20 12 33 32 33 41-3 63-29 60-74-43 2-92-5-92 41" id="d"/><path fill="#333" d="M210-169c-67 3-38 105-44 169h-31v-121c0-29-5-50-35-48C34-165 62-65 56 0H25l-1-190h30c1 10-1 24 2 32 10-44 99-50 107 0 11-21 27-35 58-36 85-2 47 119 55 194h-31v-121c0-29-5-49-35-48" id="e"/><path fill="#333" d="M100-194c63 0 86 42 84 106H49c0 40 14 67 53 68 26 1 43-12 49-29l28 8c-11 28-37 45-77 45C44 4 14-33 15-96c1-61 26-98 85-98zm52 81c6-60-76-77-97-28-3 7-6 17-6 28h103" id="f"/><path fill="#333" d="M140-251c81 0 123 46 123 126C263-46 219 4 140 4 59 4 17-45 17-125s42-126 123-126zm0 227c63 0 89-41 89-101s-29-99-89-99c-61 0-89 39-89 99S79-25 140-24" id="g"/><path fill="#333" d="M115-194c53 0 69 39 70 98 0 66-23 100-70 100C84 3 66-7 56-30L54 0H23l1-261h32v101c10-23 28-34 59-34zm-8 174c40 0 45-34 45-75 0-40-5-75-45-74-42 0-51 32-51 76 0 43 10 73 51 73" id="h"/><path fill="#333" d="M24-231v-30h32v30H24zM-9 49c24 4 33-6 33-30v-209h32V24c2 40-23 58-65 49V49" id="i"/><path fill="#333" d="M96-169c-40 0-48 33-48 73s9 75 48 75c24 0 41-14 43-38l32 2c-6 37-31 61-74 61-59 0-76-41-82-99-10-93 101-131 147-64 4 7 5 14 7 22l-32 3c-4-21-16-35-41-35" id="j"/><path fill="#333" d="M59-47c-2 24 18 29 38 22v24C64 9 27 4 27-40v-127H5v-23h24l9-43h21v43h35v23H59v120" id="k"/><g id="a"><use transform="matrix(0.05,0,0,0.05,0,0)" xlink:href="#c"/><use transform="matrix(0.05,0,0,0.05,14,0)" xlink:href="#d"/><use transform="matrix(0.05,0,0,0.05,24,0)" xlink:href="#e"/><use transform="matrix(0.05,0,0,0.05,38.95,0)" xlink:href="#f"/><use transform="matrix(0.05,0,0,0.05,48.95,0)" xlink:href="#g"/><use transform="matrix(0.05,0,0,0.05,62.95,0)" xlink:href="#h"/><use transform="matrix(0.05,0,0,0.05,72.95,0)" xlink:href="#i"/><use transform="matrix(0.05,0,0,0.05,76.9,0)" xlink:href="#f"/><use transform="matrix(0.05,0,0,0.05,86.9,0)" xlink:href="#j"/><use transform="matrix(0.05,0,0,0.05,95.9,0)" xlink:href="#k"/></g><path fill="#333" d="M212-179c-10-28-35-45-73-45-59 0-87 40-87 99 0 60 29 101 89 101 43 0 62-24 78-52l27 14C228-24 195 4 139 4 59 4 22-46 18-125c-6-104 99-153 187-111 19 9 31 26 39 46" id="l"/><path fill="#333" d="M100-194c62-1 85 37 85 99 1 63-27 99-86 99S16-35 15-95c0-66 28-99 85-99zM99-20c44 1 53-31 53-75 0-43-8-75-51-75s-53 32-53 75 10 74 51 75" id="m"/><path fill="#333" d="M115-194c55 1 70 41 70 98S169 2 115 4C84 4 66-9 55-30l1 105H24l-1-265h31l2 30c10-21 28-34 59-34zm-8 174c40 0 45-34 45-75s-6-73-45-74c-42 0-51 32-51 76 0 43 10 73 51 73" id="n"/><path fill="#333" d="M117-194c89-4 53 116 60 194h-32v-121c0-31-8-49-39-48C34-167 62-67 57 0H25l-1-190h30c1 10-1 24 2 32 11-22 29-35 61-36" id="o"/><g id="b"><use transform="matrix(0.05,0,0,0.05,0,0)" xlink:href="#l"/><use transform="matrix(0.05,0,0,0.05,12.950000000000001,0)" xlink:href="#m"/><use transform="matrix(0.05,0,0,0.05,22.950000000000003,0)" xlink:href="#e"/><use transform="matrix(0.05,0,0,0.05,37.900000000000006,0)" xlink:href="#n"/><use transform="matrix(0.05,0,0,0.05,47.900000000000006,0)" xlink:href="#m"/><use transform="matrix(0.05,0,0,0.05,57.900000000000006,0)" xlink:href="#o"/><use transform="matrix(0.05,0,0,0.05,67.9,0)" xlink:href="#f"/><use transform="matrix(0.05,0,0,0.05,77.9,0)" xlink:href="#o"/><use transform="matrix(0.05,0,0,0.05,87.9,0)" xlink:href="#k"/></g></defs></g></svg>